<svg xmlns="http://www.w3.org/2000/svg" viewBox="0 0 1200 800" width="1200" height="800">
  <defs>
    <linearGradient id="bg-pc" x1="0%" y1="0%" x2="100%" y2="100%">
      <stop offset="0%" style="stop-color:#1a1b24"/>
      <stop offset="100%" style="stop-color:#1a1b24"/>
    </linearGradient>
    <filter id="cardShadow-pc" x="-10%" y="-10%" width="120%" height="120%">
      <feDropShadow dx="0" dy="2" stdDeviation="4" flood-opacity="0.08"/>
    </filter>
    <linearGradient id="headerBar-pc" x1="0%" y1="0%" x2="0%" y2="100%">
      <stop offset="0%" style="stop-color:#2d2e3a"/>
      <stop offset="100%" style="stop-color:#2d2e3a"/>
    </linearGradient>
    <linearGradient id="imgPlaceholder-pc" x1="0%" y1="0%" x2="100%" y2="100%">
      <stop offset="0%" style="stop-color:#3f3f46"/>
      <stop offset="100%" style="stop-color:#3f3f46"/>
    </linearGradient>
    <linearGradient id="scrollFade-pc" x1="0%" y1="0%" x2="0%" y2="100%">
      <stop offset="70%" style="stop-color:transparent"/>
      <stop offset="100%" style="stop-color:#1a1b24"/>
    </linearGradient>
    <clipPath id="contentClip-pc">
      <rect x="384" y="156" width="756" height="584"/>
    </clipPath>
    <!-- 10px-tall icons for card actions -->
    <g id="icon-heart-pc"><text x="0" y="8" fill="#a1a1aa" font-family="system-ui, sans-serif" font-size="10">♡</text></g>
    <g id="icon-comment-pc"><path d="M0 .5h8a2 2 0 0 1 2 2v3a2 2 0 0 1-2 2H6l-1 1.5-1-1.5H2a2 2 0 0 1-2-2v-3a2 2 0 0 1 2-2z" fill="none" stroke="#a1a1aa" stroke-width="1"/></g>
  </defs>

  <rect width="1200" height="800" fill="url(#bg-pc)"/>

  <!-- common parts: sidebar (bottom aligned with content area at 740) -->
  <rect x="60" y="40" width="300" height="700" fill="#2d2e3a" stroke="rgba(255,255,255,0.1)" stroke-width="0.5" rx="10"/>
  <line x1="84" y1="56" x2="336" y2="56" stroke="rgba(255,255,255,0.1)" stroke-width="0.5"/>
  <text x="108" y="88" fill="#fafafa" font-family="system-ui, sans-serif" font-size="14" font-weight="500">Home</text>
  <text x="108" y="148" fill="#a1a1aa" font-family="system-ui, sans-serif" font-size="14" font-weight="500">New post</text>
  <text x="108" y="208" fill="#a1a1aa" font-family="system-ui, sans-serif" font-size="14" font-weight="500">Profile</text>
  <text x="108" y="268" fill="#a1a1aa" font-family="system-ui, sans-serif" font-size="14" font-weight="500">Drafts</text>
  <text x="108" y="328" fill="#a1a1aa" font-family="system-ui, sans-serif" font-size="14" font-weight="500">Settings</text>
  <line x1="84" y1="368" x2="336" y2="368" stroke="rgba(255,255,255,0.1)" stroke-width="0.5"/>
  <text x="108" y="398" fill="#a1a1aa" font-family="system-ui, sans-serif" font-size="14" font-weight="500">Logout</text>

  <!-- common parts: header (content area) -->
  <rect x="384" y="40" width="756" height="56" fill="url(#headerBar-pc)" stroke="rgba(255,255,255,0.1)" stroke-width="0.5" rx="10"/>
  <text x="408" y="76" fill="#fafafa" font-family="system-ui, sans-serif" font-size="18" font-weight="600">jeligramy</text>
  <rect x="1084" y="52" width="40" height="32" rx="8" fill="#e4e4e7"/>
  <g fill="#2d2e3a">
    <circle cx="1104" cy="68" r="5"/>
    <path d="M1096 76c0 6 3.5 10 8 10s8-4 8-10H1096z"/>
  </g>

  <!-- common parts: breadcrumb -->
  <rect x="384" y="108" width="756" height="36" fill="none"/>
  <text x="408" y="132" fill="#a1a1aa" font-family="system-ui, sans-serif" font-size="12">Home</text>
  <text x="456" y="132" fill="#71717a" font-family="system-ui, sans-serif" font-size="12">/</text>
  <text x="472" y="132" fill="#fafafa" font-family="system-ui, sans-serif" font-size="12">Posts</text>

  <!-- scrollable content area (2 rows × 3 columns visible, more below scroll), bottom=740, padding 32 each side -->
  <rect x="384" y="156" width="756" height="584" fill="none" stroke="rgba(255,255,255,0.06)" stroke-width="0.5" rx="10" stroke-dasharray="6 4"/>
  <rect x="1118" y="168" width="6" height="560" rx="3" fill="rgba(255,255,255,0.06)"/>
  <rect x="1119" y="196" width="4" height="134" rx="2" fill="rgba(255,255,255,0.25)"/>
  <rect x="384" y="692" width="724" height="48" fill="url(#scrollFade-pc)"/>

  <!-- main content: card grid, padding 32 L/R, card w=210, gap 20, so 416,646,876 -->
  <g filter="url(#cardShadow-pc)">
    <rect x="416" y="176" width="210" height="200" rx="10" fill="#2d2e3a" stroke="rgba(255,255,255,0.1)" stroke-width="0.5"/>
    <rect x="416" y="176" width="210" height="120" rx="10" fill="url(#imgPlaceholder-pc)"/>
    <circle cx="432" cy="192" r="14" fill="#52525b" stroke="rgba(255,255,255,0.3)" stroke-width="1"/>
    <text x="452" y="197" fill="rgba(255,255,255,0.95)" font-family="system-ui, sans-serif" font-size="11" font-weight="500">username</text>
    <circle cx="600" cy="188" r="2" fill="#a1a1aa"/>
    <circle cx="608" cy="188" r="2" fill="#a1a1aa"/>
    <circle cx="616" cy="188" r="2" fill="#a1a1aa"/>
    <rect x="416" y="276" width="210" height="20" fill="#2d2e3a"/>
    <rect x="430" y="308" width="160" height="12" rx="6" fill="#3f3f46" opacity="0.9"/>
    <rect x="430" y="326" width="110" height="10" rx="6" fill="#3f3f46" opacity="0.6"/>
    <g transform="translate(434,358)"><use href="#icon-heart-pc"/></g>
    <text x="446" y="366" fill="#a1a1aa" font-family="system-ui, sans-serif" font-size="10">12</text>
    <g transform="translate(462,358)"><use href="#icon-comment-pc"/></g>
    <text x="476" y="366" fill="#a1a1aa" font-family="system-ui, sans-serif" font-size="10">3</text>
  </g>
  <g filter="url(#cardShadow-pc)">
    <rect x="646" y="176" width="210" height="200" rx="10" fill="#2d2e3a" stroke="rgba(255,255,255,0.1)" stroke-width="0.5"/>
    <rect x="646" y="176" width="210" height="120" rx="10" fill="url(#imgPlaceholder-pc)"/>
    <circle cx="662" cy="192" r="14" fill="#52525b" stroke="rgba(255,255,255,0.3)" stroke-width="1"/>
    <text x="682" y="197" fill="rgba(255,255,255,0.95)" font-family="system-ui, sans-serif" font-size="11" font-weight="500">username</text>
    <circle cx="830" cy="188" r="2" fill="#a1a1aa"/>
    <circle cx="838" cy="188" r="2" fill="#a1a1aa"/>
    <circle cx="846" cy="188" r="2" fill="#a1a1aa"/>
    <rect x="646" y="276" width="210" height="20" fill="#2d2e3a"/>
    <rect x="660" y="308" width="175" height="12" rx="6" fill="#3f3f46" opacity="0.9"/>
    <rect x="660" y="326" width="125" height="10" rx="6" fill="#3f3f46" opacity="0.6"/>
    <g transform="translate(664,358)"><use href="#icon-heart-pc"/></g>
    <text x="676" y="366" fill="#a1a1aa" font-family="system-ui, sans-serif" font-size="10">12</text>
    <g transform="translate(692,358)"><use href="#icon-comment-pc"/></g>
    <text x="706" y="366" fill="#a1a1aa" font-family="system-ui, sans-serif" font-size="10">3</text>
  </g>
  <g filter="url(#cardShadow-pc)">
    <rect x="876" y="176" width="210" height="200" rx="10" fill="#2d2e3a" stroke="rgba(255,255,255,0.1)" stroke-width="0.5"/>
    <rect x="876" y="176" width="210" height="120" rx="10" fill="url(#imgPlaceholder-pc)"/>
    <circle cx="892" cy="192" r="14" fill="#52525b" stroke="rgba(255,255,255,0.3)" stroke-width="1"/>
    <text x="912" y="197" fill="rgba(255,255,255,0.95)" font-family="system-ui, sans-serif" font-size="11" font-weight="500">username</text>
    <circle cx="1060" cy="188" r="2" fill="#a1a1aa"/>
    <circle cx="1068" cy="188" r="2" fill="#a1a1aa"/>
    <circle cx="1076" cy="188" r="2" fill="#a1a1aa"/>
    <rect x="876" y="276" width="210" height="20" fill="#2d2e3a"/>
    <rect x="890" y="308" width="145" height="12" rx="6" fill="#3f3f46" opacity="0.9"/>
    <rect x="890" y="326" width="95" height="10" rx="6" fill="#3f3f46" opacity="0.6"/>
    <g transform="translate(894,358)"><use href="#icon-heart-pc"/></g>
    <text x="906" y="366" fill="#a1a1aa" font-family="system-ui, sans-serif" font-size="10">12</text>
    <g transform="translate(922,358)"><use href="#icon-comment-pc"/></g>
    <text x="936" y="366" fill="#a1a1aa" font-family="system-ui, sans-serif" font-size="10">3</text>
  </g>
  <g filter="url(#cardShadow-pc)">
    <rect x="416" y="396" width="210" height="200" rx="10" fill="#2d2e3a" stroke="rgba(255,255,255,0.1)" stroke-width="0.5"/>
    <rect x="416" y="396" width="210" height="120" rx="10" fill="url(#imgPlaceholder-pc)"/>
    <circle cx="432" cy="412" r="14" fill="#52525b" stroke="rgba(255,255,255,0.3)" stroke-width="1"/>
    <text x="452" y="417" fill="rgba(255,255,255,0.95)" font-family="system-ui, sans-serif" font-size="11" font-weight="500">username</text>
    <circle cx="600" cy="408" r="2" fill="#a1a1aa"/>
    <circle cx="608" cy="408" r="2" fill="#a1a1aa"/>
    <circle cx="616" cy="408" r="2" fill="#a1a1aa"/>
    <rect x="416" y="496" width="210" height="20" fill="#2d2e3a"/>
    <rect x="430" y="528" width="168" height="12" rx="6" fill="#3f3f46" opacity="0.9"/>
    <rect x="430" y="546" width="118" height="10" rx="6" fill="#3f3f46" opacity="0.6"/>
    <g transform="translate(434,578)"><use href="#icon-heart-pc"/></g>
    <text x="446" y="586" fill="#a1a1aa" font-family="system-ui, sans-serif" font-size="10">12</text>
    <g transform="translate(462,578)"><use href="#icon-comment-pc"/></g>
    <text x="476" y="586" fill="#a1a1aa" font-family="system-ui, sans-serif" font-size="10">3</text>
  </g>
  <g filter="url(#cardShadow-pc)">
    <rect x="646" y="396" width="210" height="200" rx="10" fill="#2d2e3a" stroke="rgba(255,255,255,0.1)" stroke-width="0.5"/>
    <rect x="646" y="396" width="210" height="120" rx="10" fill="url(#imgPlaceholder-pc)"/>
    <circle cx="662" cy="412" r="14" fill="#52525b" stroke="rgba(255,255,255,0.3)" stroke-width="1"/>
    <text x="682" y="417" fill="rgba(255,255,255,0.95)" font-family="system-ui, sans-serif" font-size="11" font-weight="500">username</text>
    <circle cx="830" cy="408" r="2" fill="#a1a1aa"/>
    <circle cx="838" cy="408" r="2" fill="#a1a1aa"/>
    <circle cx="846" cy="408" r="2" fill="#a1a1aa"/>
    <rect x="646" y="496" width="210" height="20" fill="#2d2e3a"/>
    <rect x="660" y="528" width="183" height="12" rx="6" fill="#3f3f46" opacity="0.9"/>
    <rect x="660" y="546" width="133" height="10" rx="6" fill="#3f3f46" opacity="0.6"/>
    <g transform="translate(664,578)"><use href="#icon-heart-pc"/></g>
    <text x="676" y="586" fill="#a1a1aa" font-family="system-ui, sans-serif" font-size="10">12</text>
    <g transform="translate(692,578)"><use href="#icon-comment-pc"/></g>
    <text x="706" y="586" fill="#a1a1aa" font-family="system-ui, sans-serif" font-size="10">3</text>
  </g>
  <g filter="url(#cardShadow-pc)">
    <rect x="876" y="396" width="210" height="200" rx="10" fill="#2d2e3a" stroke="rgba(255,255,255,0.1)" stroke-width="0.5"/>
    <rect x="876" y="396" width="210" height="120" rx="10" fill="url(#imgPlaceholder-pc)"/>
    <circle cx="892" cy="412" r="14" fill="#52525b" stroke="rgba(255,255,255,0.3)" stroke-width="1"/>
    <text x="912" y="417" fill="rgba(255,255,255,0.95)" font-family="system-ui, sans-serif" font-size="11" font-weight="500">username</text>
    <circle cx="1060" cy="408" r="2" fill="#a1a1aa"/>
    <circle cx="1068" cy="408" r="2" fill="#a1a1aa"/>
    <circle cx="1076" cy="408" r="2" fill="#a1a1aa"/>
    <rect x="876" y="496" width="210" height="20" fill="#2d2e3a"/>
    <rect x="890" y="528" width="153" height="12" rx="6" fill="#3f3f46" opacity="0.9"/>
    <rect x="890" y="546" width="103" height="10" rx="6" fill="#3f3f46" opacity="0.6"/>
    <g transform="translate(894,578)"><use href="#icon-heart-pc"/></g>
    <text x="906" y="586" fill="#a1a1aa" font-family="system-ui, sans-serif" font-size="10">12</text>
    <g transform="translate(922,578)"><use href="#icon-comment-pc"/></g>
    <text x="936" y="586" fill="#a1a1aa" font-family="system-ui, sans-serif" font-size="10">3</text>
  </g>

  <!-- common parts: footer -->
  <rect x="0" y="764" width="1200" height="36" fill="#000"/>
  <text x="600" y="776" fill="#71717a" font-family="system-ui, sans-serif" font-size="11" text-anchor="middle">c 2026 jeligramy</text>
  <text x="600" y="790" fill="#a1a1aa" font-family="system-ui, sans-serif" font-size="11" text-anchor="middle"><tspan fill="#a1a1aa">Terms</tspan><tspan fill="#71717a"> | </tspan><tspan fill="#a1a1aa">Privacy</tspan></text>
</svg>
