<svg xmlns="http://www.w3.org/2000/svg" viewBox="0 0 800 480" width="800" height="480">
  <defs>
    <linearGradient id="cp-bg" x1="0%" y1="0%" x2="100%" y2="100%">
      <stop offset="0%" style="stop-color:#1a1b24"/>
      <stop offset="100%" style="stop-color:#1a1b24"/>
    </linearGradient>
    <linearGradient id="cp-header" x1="0%" y1="0%" x2="0%" y2="100%">
      <stop offset="0%" style="stop-color:#2d2e3a"/>
      <stop offset="100%" style="stop-color:#2d2e3a"/>
    </linearGradient>
  </defs>

  <rect width="800" height="480" fill="url(#cp-bg)"/>

  <rect x="40" y="40" width="200" height="380" fill="#2d2e3a" stroke="rgba(255,255,255,0.1)" stroke-width="0.5" rx="10"/>
  <line x1="56" y1="56" x2="224" y2="56" stroke="rgba(255,255,255,0.1)" stroke-width="0.5"/>
  <text x="68" y="82" fill="#fafafa" font-family="system-ui, sans-serif" font-size="14" font-weight="500">Home</text>
  <text x="68" y="130" fill="#a1a1aa" font-family="system-ui, sans-serif" font-size="14" font-weight="500">New post</text>
  <text x="68" y="178" fill="#a1a1aa" font-family="system-ui, sans-serif" font-size="14" font-weight="500">Profile</text>
  <text x="68" y="226" fill="#a1a1aa" font-family="system-ui, sans-serif" font-size="14" font-weight="500">Drafts</text>
  <text x="68" y="274" fill="#a1a1aa" font-family="system-ui, sans-serif" font-size="14" font-weight="500">Settings</text>
  <line x1="56" y1="308" x2="224" y2="308" stroke="rgba(255,255,255,0.1)" stroke-width="0.5"/>
  <text x="68" y="334" fill="#a1a1aa" font-family="system-ui, sans-serif" font-size="14" font-weight="500">Logout</text>

  <rect x="256" y="40" width="504" height="56" fill="url(#cp-header)" stroke="rgba(255,255,255,0.1)" stroke-width="0.5" rx="10"/>
  <text x="272" y="76" fill="#fafafa" font-family="system-ui, sans-serif" font-size="18" font-weight="600">jeligramy</text>
  <rect x="712" y="52" width="40" height="32" rx="8" fill="#e4e4e7"/>
  <g fill="#2d2e3a">
    <circle cx="732" cy="58" r="5"/>
    <path d="M724 66c0 6 3.5 10 8 10s8-4 8-10H724z"/>
  </g>

  <rect x="256" y="108" width="504" height="36" fill="none"/>
  <text x="272" y="128" fill="#a1a1aa" font-family="system-ui, sans-serif" font-size="12">Home</text>
  <text x="312" y="128" fill="#71717a" font-family="system-ui, sans-serif" font-size="12">/</text>
  <text x="328" y="128" fill="#fafafa" font-family="system-ui, sans-serif" font-size="12">Posts</text>

  <rect x="256" y="156" width="504" height="264" rx="10" fill="#2d2e3a" stroke="rgba(255,255,255,0.1)" stroke-width="0.5"/>
  <text x="508" y="288" fill="#71717a" font-family="system-ui, sans-serif" font-size="13" text-anchor="middle">Main content area</text>

  <rect x="0" y="444" width="800" height="36" fill="#000"/>
  <text x="400" y="456" fill="#71717a" font-family="system-ui, sans-serif" font-size="11" text-anchor="middle">c 2026 jeligramy</text>
  <text x="400" y="470" fill="#a1a1aa" font-family="system-ui, sans-serif" font-size="11" text-anchor="middle"><tspan fill="#a1a1aa">Terms</tspan><tspan fill="#71717a"> | </tspan><tspan fill="#a1a1aa">Privacy</tspan></text>
</svg>
